<?xml version="1.0" standalone="no"?>
<!DOCTYPE svg PUBLIC "-//W3C//DTD SVG 20010904//EN"
 "http://www.w3.org/TR/2001/REC-SVG-20010904/DTD/svg10.dtd">
<svg version="1.0" xmlns="http://www.w3.org/2000/svg"
 width="624.000000pt" height="463.000000pt" viewBox="0 0 624.000000 463.000000"
 preserveAspectRatio="xMidYMid meet">
<metadata>
Created by potrace 1.16, written by Peter Selinger 2001-2019
</metadata>
<g transform="translate(0.000000,463.000000) scale(0.100000,-0.100000)"
fill="#000000" stroke="none">
<path d="M1100 3973 c-29 -49 -68 -113 -86 -145 -19 -31 -34 -61 -34 -66 0 -6
-4 -12 -8 -14 -6 -2 -320 -528 -358 -598 -4 -9 69 -89 401 -438 39 -40 74 -80
78 -88 10 -17 47 -19 47 -2 0 6 3 9 6 5 3 -3 1 -14 -4 -23 -11 -19 50 -88 315
-363 57 -58 103 -108 103 -109 0 -2 38 -44 84 -93 l83 -90 6 -147 c10 -226 5
-218 150 -233 50 -5 107 -17 126 -27 36 -17 36 -17 48 -112 24 -189 44 -271
67 -282 12 -5 103 -15 202 -21 l180 -12 254 -270 c140 -148 276 -293 303 -322
28 -29 54 -50 60 -46 6 3 7 1 3 -5 -3 -6 -1 -14 5 -17 11 -8 25 6 399 405
l240 256 197 11 c109 6 206 14 215 18 27 11 41 69 71 289 11 84 14 91 42 107
18 11 70 22 129 28 127 13 135 21 147 128 4 43 8 125 9 183 l1 105 520 555
c286 305 533 569 549 586 17 17 30 35 30 40 0 4 -32 62 -72 129 -39 66 -97
163 -128 215 -31 52 -74 125 -95 163 -22 37 -46 67 -55 67 -9 0 -11 3 -4 8 7
4 -21 61 -79 159 l-89 153 -2003 0 -2004 0 -51 -87z m3940 -13 l65 -1 51 -87
c297 -503 384 -651 395 -674 11 -26 7 -32 -146 -195 -215 -228 -384 -408 -620
-661 -196 -209 -214 -224 -215 -167 0 11 -6 31 -13 46 -13 23 -11 28 17 61 28
32 213 230 386 413 334 355 455 485 458 496 2 5 -9 31 -26 57 -16 26 -103 172
-192 325 l-163 277 -1885 -2 -1886 -3 -188 -320 c-104 -176 -193 -327 -198
-336 -7 -13 0 -28 31 -63 22 -25 47 -46 55 -46 8 0 13 -4 11 -9 -2 -9 132
-158 302 -336 42 -44 165 -175 273 -291 196 -209 197 -211 193 -250 l-5 -39
10 32 c13 41 30 50 109 59 47 5 62 4 57 -5 -5 -7 5 -11 33 -11 23 0 41 5 41
10 0 6 -5 10 -11 10 -5 0 -8 4 -5 9 3 5 15 7 26 4 11 -3 17 -9 14 -14 -3 -5 2
-9 10 -9 9 0 16 7 16 15 0 8 7 15 15 15 19 0 32 25 40 82 4 26 14 55 22 65 14
17 14 17 8 -2 -13 -42 -18 -108 -7 -101 6 3 14 26 18 51 3 24 11 48 18 53 21
17 85 21 112 7 29 -15 82 -12 98 6 8 9 7 10 -2 4 -20 -11 -82 -9 -95 4 -6 6
-32 8 -68 4 -48 -5 -62 -2 -87 15 -16 12 -32 34 -35 49 -7 39 17 91 48 103 14
5 25 14 25 20 0 15 63 40 99 40 20 0 32 6 36 19 10 34 90 37 163 7 56 -24 62
-24 90 -10 17 8 43 15 59 15 229 1 290 -9 337 -57 80 -81 126 -133 126 -143 0
-32 -23 -60 -65 -80 -25 -12 -49 -31 -54 -44 -13 -36 -21 -128 -11 -122 6 4
10 23 10 43 0 44 9 82 20 82 4 0 11 -45 15 -100 5 -66 11 -99 19 -97 10 2 21
-136 25 -315 0 -32 6 -58 11 -58 6 0 10 7 10 15 0 8 5 15 11 15 12 0 3 -264
-12 -335 -8 -38 -8 -38 -6 15 3 81 -17 78 -25 -4 -7 -72 -2 -99 13 -75 19 30
8 -40 -26 -160 -19 -68 -36 -125 -37 -127 -10 -9 -215 -20 -328 -18 -303 7
-475 18 -499 34 -16 9 -27 61 -51 223 -10 71 -24 135 -31 143 -22 27 -48 35
-157 49 -76 10 -110 19 -119 31 -20 27 -28 119 -28 331 0 178 -6 237 -17 166
-2 -18 -40 17 -205 195 -111 119 -239 255 -283 302 -45 47 -104 111 -132 143
-28 31 -58 57 -65 57 -8 0 -16 8 -20 18 -12 33 -135 163 -150 158 -8 -3 -11
-1 -8 5 4 5 -25 46 -65 89 -68 76 -71 81 -56 102 14 20 14 23 -6 40 -26 22
-38 23 -38 3 0 -8 -4 -15 -10 -15 -15 0 -12 16 4 30 8 6 12 19 10 28 -5 15 -4
15 9 0 17 -22 27 -23 27 -3 0 9 6 12 15 9 11 -4 12 -10 6 -18 -5 -6 -6 -18 -2
-25 6 -9 28 21 72 98 215 375 372 631 388 631 9 0 849 2 1866 3 1529 2 1850 4
1847 15 -2 10 3 10 20 -2 15 -11 45 -16 88 -16z m-3600 -398 c0 -16 -9 -37
-20 -47 -22 -20 -27 -73 -10 -105 6 -11 32 -34 58 -51 108 -73 152 -141 152
-240 0 -129 -51 -214 -147 -243 -20 -6 -23 -4 -23 20 0 16 10 36 25 50 18 16
25 33 25 59 0 51 -11 67 -74 109 -112 74 -154 156 -143 278 8 86 42 148 97
176 56 28 60 28 60 -6z m90 3 c22 -12 27 -11 43 2 9 9 20 13 24 9 4 -4 9 -51
11 -104 3 -75 0 -102 -11 -117 -17 -22 -16 -25 -53 80 -10 27 -30 61 -46 75
-53 47 -29 89 32 55z m1670 -306 c0 -298 1 -309 20 -319 22 -12 26 -35 8 -46
-6 -4 -33 -7 -60 -6 -43 1 -48 -1 -48 -21 l0 -21 -16 22 c-13 19 -24 23 -52
20 -29 -2 -37 1 -40 15 -2 10 3 26 12 35 23 26 24 563 1 582 -8 7 -15 21 -15
31 0 14 9 19 48 21 26 2 68 1 95 0 l47 -4 0 -309z m1265 56 c27 -176 41 -244
53 -255 20 -18 28 -50 12 -50 -16 0 -12 -56 5 -70 26 -21 19 -50 -12 -51 -64
-2 -170 3 -190 8 l-22 5 24 26 c26 28 29 40 19 91 -6 29 -9 31 -49 31 -50 0
-55 4 -46 38 6 23 12 27 38 24 17 -2 33 0 36 5 3 4 -8 91 -24 193 -16 102 -29
202 -29 222 l0 37 63 3 c34 2 67 -1 73 -7 7 -5 29 -118 49 -250z m305 -50 c0
-299 1 -311 20 -323 11 -7 20 -21 20 -32 0 -19 -7 -20 -110 -20 -91 0 -112 3
-117 16 -3 9 3 23 16 35 16 16 21 32 21 74 0 42 -3 55 -15 55 -8 0 -15 5 -15
10 0 6 7 10 15 10 18 0 21 46 3 54 -10 5 -10 7 0 12 17 8 17 274 0 274 -9 0
-9 3 0 12 19 19 14 55 -9 77 -13 12 -19 26 -15 38 5 16 17 18 96 18 l90 0 0
-310z m142 288 c15 -7 36 -25 45 -40 18 -27 44 -154 34 -163 -3 -3 -15 -23
-26 -45 -11 -22 -35 -50 -54 -62 -23 -16 -28 -23 -16 -23 9 0 32 -15 51 -34
33 -33 34 -36 34 -115 0 -80 5 -92 28 -69 9 9 15 9 23 1 28 -28 -44 -133 -91
-133 -33 0 -71 23 -86 52 -9 18 -17 70 -20 136 -3 73 -9 111 -19 123 -20 21
-19 59 2 74 29 22 22 255 -7 255 -11 0 -14 53 -4 63 9 8 75 -4 106 -20z
m-3022 -2 c0 -10 -7 -24 -15 -31 -13 -11 -15 -55 -15 -281 0 -258 1 -270 21
-290 13 -13 19 -30 17 -47 -3 -25 -6 -27 -42 -25 -52 4 -108 42 -132 90 -17
34 -19 67 -22 290 -3 202 -7 254 -18 264 -8 6 -14 20 -14 30 0 17 9 19 110 19
101 0 110 -2 110 -19z m207 3 c3 -9 -4 -26 -18 -40 -24 -25 -24 -30 -29 -268
-5 -234 -6 -243 -30 -291 -15 -29 -39 -57 -58 -68 l-32 -19 0 32 c0 22 8 38
30 56 16 14 34 42 40 62 5 20 10 130 10 243 0 204 0 207 -25 243 -40 58 -35
66 40 66 50 0 67 -4 72 -16z m243 -290 c0 -302 0 -306 22 -323 30 -25 18 -51
-24 -52 -96 -3 -173 2 -182 11 -7 7 -7 16 2 28 30 42 32 71 30 323 -3 241 -4
259 -22 272 -12 9 -17 20 -13 31 5 13 22 16 97 16 l90 0 0 -306z m124 295 c64
-30 105 -148 86 -249 -18 -96 -63 -147 -138 -157 -41 -5 -42 -5 -42 22 0 15 8
34 17 40 15 11 18 31 18 143 0 110 -3 133 -17 149 -10 11 -18 29 -18 41 0 18
6 22 35 22 19 0 45 -5 59 -11z m320 -334 l1 -340 -75 -1 c-41 0 -83 1 -92 4
-22 4 -23 35 -3 52 13 11 15 55 15 290 0 235 -2 279 -15 290 -8 7 -15 21 -15
32 0 17 7 19 92 16 l92 -3 0 -340z m166 245 c0 -77 -3 -100 -13 -100 -8 0 -19
19 -26 43 -13 44 -56 97 -78 97 -8 0 -13 12 -13 30 l0 30 65 0 65 0 0 -100z
m390 85 c44 -23 70 -82 70 -157 0 -75 -21 -123 -68 -155 l-34 -22 25 -6 c14
-4 36 -18 49 -32 20 -21 23 -37 27 -114 3 -88 4 -90 22 -73 17 15 19 15 25 0
15 -40 -28 -110 -74 -121 -16 -3 -42 0 -58 6 -16 7 -33 11 -37 10 -5 -1 -6 2
-3 7 3 5 -1 26 -9 48 -8 21 -14 78 -15 127 0 73 -3 90 -20 107 -11 11 -20 29
-20 40 0 10 9 24 20 30 18 10 20 21 20 125 0 103 -2 117 -20 132 -11 10 -20
28 -20 40 0 21 5 23 45 23 26 0 59 -7 75 -15z m520 -100 c0 -63 0 -203 0 -310
0 -107 0 -208 0 -225 l0 -30 -90 0 c-88 0 -90 0 -90 24 0 13 7 26 15 30 13 5
15 46 15 284 0 236 -2 281 -15 292 -8 7 -15 21 -15 31 0 17 9 19 90 19 l90 0
0 -115z m180 80 c76 -72 60 -230 -28 -276 l-33 -17 38 -19 c49 -26 76 -79 77
-152 1 -104 -46 -169 -135 -185 -70 -12 -91 21 -43 69 25 25 26 29 22 132 -3
96 -5 107 -25 121 -30 19 -29 45 3 77 25 25 26 30 22 116 -3 80 -6 93 -25 109
-13 10 -23 28 -23 40 0 21 3 22 60 18 49 -3 65 -9 90 -33z m231 -122 c0 -5 2
-24 4 -43 2 -19 -10 -104 -26 -188 -35 -187 -36 -218 -7 -241 38 -31 18 -51
-52 -51 -73 0 -86 17 -47 58 14 15 28 38 31 52 10 42 25 123 62 323 10 53 22
97 26 97 4 0 8 -3 9 -7z m-1379 -85 c3 -99 7 -120 22 -137 9 -10 16 -22 16
-27 0 -5 -5 -1 -11 9 -14 25 -31 10 -25 -21 7 -31 -6 -58 -22 -48 -6 4 -14 22
-18 41 -3 18 -15 41 -25 51 -25 22 -24 66 1 89 11 10 22 33 26 51 9 50 34 44
36 -8z m-1572 -230 c14 -60 59 -147 81 -159 12 -6 19 -21 19 -39 0 -36 -1 -36
-52 -8 -38 22 -40 22 -53 4 -26 -35 -35 -7 -35 113 0 65 3 121 7 124 14 15 23
5 33 -35z m1638 -106 c2 -78 0 -102 -10 -103 -48 -3 -129 -1 -133 3 -10 10 14
56 32 62 22 7 60 64 69 103 9 38 14 45 27 40 8 -2 13 -39 15 -105z m1056 -301
c12 -12 34 -21 48 -21 38 0 80 -18 95 -40 8 -11 20 -20 28 -20 23 0 45 -42 45
-87 0 -35 -5 -45 -31 -64 -26 -18 -39 -21 -88 -16 -36 4 -62 2 -68 -4 -6 -6
-31 -10 -56 -8 -50 4 -54 -6 -7 -16 18 -4 41 -1 57 7 36 18 111 11 122 -11 5
-9 12 -35 16 -58 4 -24 11 -43 17 -43 11 0 6 50 -8 99 -5 17 -4 22 4 17 6 -4
17 -34 23 -68 16 -81 49 -115 119 -124 36 -5 54 -3 60 5 9 15 121 4 147 -14
27 -20 39 -211 26 -413 -6 -92 -14 -174 -18 -183 -8 -21 -48 -39 -87 -39 -64
0 -160 -23 -184 -44 -22 -18 -28 -38 -44 -146 -30 -200 -38 -229 -63 -234 -67
-14 -109 -17 -301 -22 -149 -4 -214 -10 -221 -19 -32 -39 -500 -535 -506 -535
-3 0 -73 71 -155 157 -81 87 -176 187 -210 223 -34 36 -76 82 -94 103 l-32 37
80 0 c44 0 82 -4 84 -9 2 -4 75 -85 163 -180 l160 -171 71 72 c39 40 117 122
173 183 l102 110 69 -4 c39 -1 70 2 74 8 7 11 -35 17 -173 26 -52 3 -96 7 -98
9 -2 2 -20 59 -39 127 -33 118 -44 191 -25 160 15 -23 19 1 12 74 -7 86 -27
86 -24 0 l2 -60 -11 45 c-16 67 -16 682 0 800 14 104 38 156 28 60 -7 -65 -30
-449 -30 -502 0 -35 9 -57 18 -47 3 2 8 91 12 197 5 150 10 190 19 182 10 -8
14 13 20 91 5 77 10 98 18 90 8 -8 11 -45 9 -109 -1 -53 -3 -124 -3 -157 -1
-73 16 -228 26 -245 8 -12 66 -40 85 -40 23 0 8 18 -22 26 -42 12 -58 45 -56
114 l1 55 7 -55 7 -55 1 58 c2 44 5 57 18 57 14 0 15 14 8 114 -6 105 -5 113
12 118 11 3 27 9 36 13 13 5 27 -2 48 -25 21 -22 30 -27 30 -16 0 9 -10 26
-21 37 -17 17 -29 20 -60 16 -36 -5 -39 -3 -39 19 0 13 7 41 15 61 14 36 18
38 58 38 23 0 61 8 83 18 l41 19 39 -27 c49 -34 95 -30 167 15 31 19 58 29 70
26 18 -5 19 -4 4 11 -14 14 -18 14 -46 -6 -16 -12 -51 -31 -76 -42 -52 -23
-90 -17 -132 23 l-23 22 -39 -22 c-25 -15 -56 -22 -89 -22 -48 0 -50 -1 -65
-37 -26 -66 -31 -105 -32 -223 0 -108 -1 -115 -20 -115 -34 0 -41 45 -22 138
27 130 0 247 -58 247 -21 0 -65 48 -65 71 0 19 21 45 121 148 41 43 114 64
209 60 30 -1 78 -1 106 1 32 1 65 -4 86 -14 32 -15 36 -15 73 3 22 10 47 21
55 24 28 12 92 -1 114 -22z"/>
<path d="M2389 2453 c-12 -16 -12 -16 1 -6 12 9 27 4 74 -25 75 -47 125 -50
175 -11 l34 27 35 -21 c21 -13 53 -21 83 -21 48 -1 50 -2 64 -41 30 -85 30
-88 1 -83 -14 3 -26 2 -26 -3 0 -4 10 -9 23 -11 22 -3 22 -5 19 -126 -3 -99
-1 -122 10 -120 9 2 15 -13 19 -52 l5 -55 5 55 5 55 2 -55 c2 -69 -14 -102
-56 -114 -17 -5 -32 -13 -32 -17 0 -13 16 -11 55 5 27 12 36 23 45 56 6 23 10
61 9 84 -1 22 3 51 9 63 7 12 12 39 12 60 0 48 -22 143 -33 143 -5 0 -7 -6 -4
-14 14 -36 29 -138 23 -159 -6 -26 -31 -42 -47 -31 -5 3 -9 58 -8 122 2 111
-7 169 -33 228 -10 21 -18 24 -61 24 -32 0 -63 8 -88 22 l-39 22 -23 -22 c-42
-40 -80 -46 -132 -23 -25 11 -59 29 -74 41 -35 24 -35 24 -52 3z"/>
<path d="M2263 2280 c-18 -11 -33 -24 -33 -30 0 -6 12 -2 28 9 49 35 69 35
102 2 17 -17 30 -40 29 -53 0 -22 -1 -22 -9 -3 -7 16 -9 17 -9 3 -1 -9 6 -23
14 -32 9 -8 14 -30 14 -53 l-2 -38 -6 40 c-6 33 -8 24 -15 -57 -5 -63 -14
-109 -27 -132 -21 -40 -23 -46 -10 -46 5 0 14 14 21 30 7 17 15 29 17 26 6 -6
-25 -63 -39 -72 -7 -4 -28 -11 -48 -15 l-35 -7 37 -1 c52 -2 66 6 91 53 20 37
22 55 22 189 l0 149 -33 29 c-38 34 -65 36 -109 9z"/>
<path d="M1906 2181 c-22 -5 -45 -17 -53 -27 -10 -13 -13 -14 -14 -3 -1 24
-26 -75 -34 -136 -5 -41 -3 -62 8 -78 9 -14 16 -60 19 -120 7 -123 29 -153
132 -171 68 -13 73 0 75 177 0 84 3 191 7 239 6 83 5 87 -18 102 -31 21 -74
26 -122 17z m-69 -96 c-3 -19 -2 -35 4 -35 5 0 9 11 9 24 0 14 4 27 8 30 8 5
152 -144 162 -167 3 -7 3 -44 0 -83 l-5 -71 -87 93 c-72 76 -88 100 -89 126
l-1 33 -8 -30 -8 -30 -1 35 c-1 41 9 110 17 110 2 0 2 -16 -1 -35z"/>
<path d="M2502 1774 c-12 -8 -22 -20 -22 -25 0 -5 14 0 30 13 36 26 72 18 102
-23 26 -35 41 -150 30 -230 -9 -63 -9 -63 -9 36 0 102 -15 185 -34 185 -7 0
-8 -7 -4 -17 16 -42 26 -143 21 -218 -4 -53 -2 -75 4 -65 8 12 10 10 10 -8 0
-13 -14 -37 -30 -54 -27 -27 -36 -30 -73 -25 l-42 6 30 -14 c57 -27 91 -12
125 54 18 36 25 237 10 299 -21 89 -88 128 -148 86z"/>
<path d="M2760 1770 c-31 -31 -23 -47 9 -16 22 21 34 26 54 21 47 -12 62 -40
63 -118 l1 -72 -7 60 c-3 33 -7 56 -8 50 -1 -5 -7 -46 -12 -90 -6 -44 -14
-101 -19 -127 -11 -65 5 -61 18 5 18 89 21 94 15 33 -7 -91 -53 -157 -101
-148 -7 2 -13 -2 -13 -8 0 -5 9 -10 19 -10 37 0 70 19 86 50 37 71 58 280 34
333 -24 52 -103 73 -139 37z"/>
<path d="M3935 2267 c-33 -33 -35 -39 -37 -108 -5 -165 7 -240 48 -284 18 -20
32 -25 66 -23 42 1 42 1 7 5 -20 2 -45 13 -55 24 -16 18 -16 19 -1 13 22 -8
21 -3 -3 38 -15 26 -21 64 -28 163 -10 139 -5 166 32 182 25 12 71 1 97 -23
10 -9 19 -13 19 -7 0 19 -37 44 -73 50 -32 5 -41 1 -72 -30z"/>
<path d="M4300 2173 l-35 -18 4 -240 c4 -277 5 -281 80 -269 57 9 103 42 118
84 7 19 12 72 12 117 1 54 5 83 13 85 16 6 15 87 -2 167 -10 48 -15 60 -21 45
-6 -16 -8 -16 -8 -2 -2 39 -106 59 -161 31z m164 -131 c5 -30 -1 -40 -82 -129
l-87 -97 -7 45 c-15 101 -15 103 74 195 l83 86 6 -33 c4 -19 9 -49 13 -67z"/>
<path d="M3451 1776 c-38 -21 -50 -55 -50 -136 -1 -111 30 -238 63 -267 28
-24 86 -32 86 -12 0 6 -6 9 -12 6 -23 -8 -65 22 -82 58 -9 19 -19 59 -21 88
l-5 52 13 -62 c8 -35 17 -66 22 -70 8 -9 2 52 -19 187 l-13 85 -3 -70 c-2 -61
-3 -65 -10 -33 -23 121 48 212 119 152 34 -28 43 -16 11 16 -23 23 -64 25 -99
6z"/>
</g>
</svg>
